<?xml version="1.0" encoding="utf-8"?>
<!-- Generator: Adobe Illustrator 22.1.0, SVG Export Plug-In . SVG Version: 6.00 Build 0)  -->
<svg version="1.1" id="Calque_1" xmlns="http://www.w3.org/2000/svg" xmlns:xlink="http://www.w3.org/1999/xlink" x="0px" y="0px"
	 viewBox="0 0 500 457.6" style="enable-background:new 0 0 500 457.6;" xml:space="preserve">
<style type="text/css">
	.st0{fill:#1575B4;}
</style>
<g>
	<path class="st0" d="M43.5,249.8c0-114.2,92.3-206.5,206.5-206.5s206.5,92.3,206.5,206.5c0,49.5-17.6,94.9-46.2,130.1l29.4,29.4
		c36.1-42.8,57.9-99.1,57.9-159.5C497.6,113,386.8,2.2,250,2.2S2.4,113,2.4,249.8c0,60.4,21.8,116.7,57.9,159.5l29.4-29.4
		C61.1,344.7,43.5,299.3,43.5,249.8z"/>
	<path class="st0" d="M372.6,342.1c19.3-26,31.1-57.9,31.1-92.3c0-84.8-68.8-153.6-153.6-153.6S96.4,165,96.4,249.8
		c0,34.4,11.8,67.2,31.1,92.3L250,219.6L372.6,342.1z"/>
	<path class="st0" d="M250,402.6c-50.4,0-94-23.5-122.6-61.3l-37.8,37.8c37.8,46.2,95.7,76.4,160.3,76.4s122.6-29.4,160.3-76.4
		l-37.8-36.9C344,379.1,300.4,402.6,250,402.6z"/>
</g>
</svg>
