<?xml version="1.0" encoding="utf-8"?>
<!-- Generator: Adobe Illustrator 22.1.0, SVG Export Plug-In . SVG Version: 6.00 Build 0)  -->
<svg version="1.1" id="Calque_1" xmlns="http://www.w3.org/2000/svg" xmlns:xlink="http://www.w3.org/1999/xlink" x="0px" y="0px"
	 viewBox="0 0 60 55" style="enable-background:new 0 0 60 55;" xml:space="preserve">
<style type="text/css">
	.st0{fill:#FFFFFF;}
</style>
<g>
	<path class="st0" d="M5.4,30c0-13.6,11-24.6,24.6-24.6s24.6,11,24.6,24.6c0,5.9-2.1,11.3-5.5,15.5l3.5,3.5c4.3-5.1,6.9-11.8,6.9-19
		C59.5,13.7,46.3,0.5,30,0.5S0.5,13.7,0.5,30c0,7.2,2.6,13.9,6.9,19l3.5-3.5C7.5,41.3,5.4,35.9,5.4,30z"/>
	<path class="st0" d="M44.6,41c2.3-3.1,3.7-6.9,3.7-11c0-10.1-8.2-18.3-18.3-18.3c-10.1,0-18.3,8.2-18.3,18.3c0,4.1,1.4,8,3.7,11
		L30,26.4L44.6,41z"/>
	<path class="st0" d="M30,48.2c-6,0-11.2-2.8-14.6-7.3l-4.5,4.5c4.5,5.5,11.4,9.1,19.1,9.1s14.6-3.5,19.1-9.1L44.6,41
		C41.2,45.4,36,48.2,30,48.2z"/>
</g>
</svg>
